<?xml version="1.0" encoding="utf-8"?>
<!-- Generator: Adobe Illustrator 27.0.0, SVG Export Plug-In . SVG Version: 6.00 Build 0)  -->
<svg version="1.1" id="Layer_1" xmlns="http://www.w3.org/2000/svg" xmlns:xlink="http://www.w3.org/1999/xlink" x="0px" y="0px"
	 viewBox="0 0 40 40" style="enable-background:new 0 0 40 40;" xml:space="preserve">
<style type="text/css">
	.st0{fill:#FFFFFF;}
</style>
<g>
	<path class="st0" d="M12.74,39.69c-0.96,0-1.78-0.34-2.45-1.01c-0.67-0.67-1.01-1.49-1.01-2.45s0.34-1.78,1.01-2.45
		c0.67-0.67,1.49-1.01,2.45-1.01c0.96,0,1.78,0.34,2.45,1.01c0.67,0.67,1.01,1.49,1.01,2.45s-0.34,1.78-1.01,2.45
		C14.51,39.36,13.7,39.69,12.74,39.69z M31.93,39.69c-0.96,0-1.78-0.34-2.45-1.01c-0.67-0.67-1.01-1.49-1.01-2.45
		s0.34-1.78,1.01-2.45c0.67-0.67,1.49-1.01,2.45-1.01c0.96,0,1.78,0.34,2.45,1.01s1.01,1.49,1.01,2.45s-0.34,1.78-1.01,2.45
		C33.7,39.36,32.89,39.69,31.93,39.69z M9.14,4.1h26.87c1.15,0,2.03,0.51,2.64,1.54c0.61,1.02,0.62,2.06,0.05,3.12l-5.66,10.27
		c-0.42,0.67-0.94,1.22-1.56,1.66c-0.62,0.43-1.34,0.65-2.13,0.65h-14.2l-2.35,4.46h23.12v3.93H12.26c-1.6,0-2.74-0.54-3.43-1.63
		C8.14,27,8.16,25.81,8.9,24.53l2.93-5.37l-7-14.92H0.89V0.31h6.48L9.14,4.1z"/>
</g>
</svg>
